<?xml version="1.0" encoding="UTF-8" standalone="no"?>
<!DOCTYPE svg PUBLIC "-//W3C//DTD SVG 1.1//EN"
        "http://www.w3.org/Graphics/SVG/1.1/DTD/svg11.dtd">
<!-- Generated by graphviz version 2.40.1 (20161225.0304)
 -->
<!-- Title: GA Pages: 1 -->
<svg width="124pt" height="211pt"
     viewBox="0.00 0.00 123.69 211.00" xmlns="http://www.w3.org/2000/svg">
    <g id="graph0" class="graph" transform="scale(1 1) rotate(0) translate(4 207)">
        <title>GA</title>
        <polygon fill="#ffffff" stroke="transparent" points="-4,4 -4,-207 119.6868,-207 119.6868,4 -4,4"/>
        <text text-anchor="middle" x="57.8434" y="-187.8" font-family="Times,serif" font-size="14.00" fill="#000000">A
        </text>
        <!-- 1 -->
        <g id="node1" class="node">
            <title>1</title>
            <ellipse fill="#b2dfee" stroke="#b2dfee" cx="29.757" cy="-18" rx="18" ry="18"/>
            <text text-anchor="middle" x="29.757" y="-14.3" font-family="Times,serif" font-size="14.00" fill="#000000">
                1
            </text>
        </g>
        <!-- 2 -->
        <g id="node2" class="node">
            <title>2</title>
            <ellipse fill="#b2dfee" stroke="#b2dfee" cx="83.757" cy="-18" rx="18" ry="18"/>
            <text text-anchor="middle" x="83.757" y="-14.3" font-family="Times,serif" font-size="14.00" fill="#000000">
                2
            </text>
        </g>
        <!-- 3 -->
        <g id="node3" class="node">
            <title>3</title>
            <ellipse fill="#b2dfee" stroke="#b2dfee" cx="83.757" cy="-90" rx="18" ry="18"/>
            <text text-anchor="middle" x="83.757" y="-86.3" font-family="Times,serif" font-size="14.00" fill="#000000">
                3
            </text>
        </g>
        <!-- 3&#45;&#45;1 -->
        <g id="edge1" class="edge">
            <title>3&#45;&#45;1</title>
            <path fill="none" stroke="#000000" d="M72.8293,-75.4297C63.4606,-62.938 50.0325,-45.034 40.6685,-32.5486"/>
        </g>
        <!-- 3&#45;&#45;2 -->
        <g id="edge2" class="edge">
            <title>3&#45;&#45;2</title>
            <path fill="none" stroke="#000000" d="M83.757,-71.8314C83.757,-61 83.757,-47.2876 83.757,-36.4133"/>
        </g>
        <!-- 4 -->
        <g id="node4" class="node">
            <title>4</title>
            <ellipse fill="#b2dfee" stroke="#b2dfee" cx="29.757" cy="-90" rx="18" ry="18"/>
            <text text-anchor="middle" x="29.757" y="-86.3" font-family="Times,serif" font-size="14.00" fill="#000000">
                4
            </text>
        </g>
        <!-- 4&#45;&#45;1 -->
        <g id="edge3" class="edge">
            <title>4&#45;&#45;1</title>
            <path fill="none" stroke="#000000" d="M29.757,-71.8314C29.757,-61 29.757,-47.2876 29.757,-36.4133"/>
        </g>
        <!-- 4&#45;&#45;2 -->
        <g id="edge4" class="edge">
            <title>4&#45;&#45;2</title>
            <path fill="none" stroke="#000000" d="M40.6847,-75.4297C50.0535,-62.938 63.4815,-45.034 72.8456,-32.5486"/>
        </g>
        <!-- 5 -->
        <g id="node5" class="node">
            <title>5</title>
            <ellipse fill="#b2dfee" stroke="#b2dfee" cx="29.757" cy="-162" rx="18" ry="18"/>
            <text text-anchor="middle" x="29.757" y="-158.3" font-family="Times,serif" font-size="14.00" fill="#000000">
                5
            </text>
        </g>
        <!-- 5&#45;&#45;1 -->
        <g id="edge5" class="edge">
            <title>5&#45;&#45;1</title>
            <path fill="none" stroke="#000000"
                  d="M19.6799,-146.6731C13.4476,-136.2467 6.0321,-121.8736 2.757,-108 -.919,-92.428 -.919,-87.572 2.757,-72 6.0321,-58.1264 13.4476,-43.7533 19.6799,-33.3269"/>
        </g>
        <!-- 5&#45;&#45;2 -->
        <g id="edge6" class="edge">
            <title>5&#45;&#45;2</title>
            <path fill="none" stroke="#000000"
                  d="M47.1412,-156.1186C66.6623,-148.4667 97.3592,-133.034 110.757,-108 124.0736,-83.1179 107.0616,-50.7643 94.6306,-32.4005"/>
        </g>
        <!-- 5&#45;&#45;4 -->
        <g id="edge7" class="edge">
            <title>5&#45;&#45;4</title>
            <path fill="none" stroke="#000000" d="M29.757,-143.8314C29.757,-133 29.757,-119.2876 29.757,-108.4133"/>
        </g>
    </g>
</svg>
