<?xml version="1.0" encoding="UTF-8" standalone="no"?>
<!DOCTYPE svg PUBLIC "-//W3C//DTD SVG 1.1//EN"
        "http://www.w3.org/Graphics/SVG/1.1/DTD/svg11.dtd">
<!-- Generated by graphviz version 2.40.1 (20161225.0304)
 -->
<!-- Title: GВходной граф Pages: 1 -->
<svg width="257pt" height="415pt"
     viewBox="0.00 0.00 257.00 415.00" xmlns="http://www.w3.org/2000/svg">
    <g id="graph0" class="graph" transform="scale(1 1) rotate(0) translate(4 411)">
        <title>GВходной граф</title>
        <polygon fill="#ffffff" stroke="transparent" points="-4,4 -4,-411 253,-411 253,4 -4,4"/>
        <text text-anchor="middle" x="124.5" y="-391.8" font-family="Times,serif" font-size="14.00" fill="#000000">
            Входной граф
        </text>
        <!-- 1 -->
        <g id="node1" class="node">
            <title>1</title>
            <ellipse fill="#b2dfee" stroke="#b2dfee" cx="120" cy="-18" rx="18" ry="18"/>
            <text text-anchor="middle" x="120" y="-14.3" font-family="Times,serif" font-size="14.00" fill="#000000">1
            </text>
        </g>
        <!-- 2 -->
        <g id="node2" class="node">
            <title>2</title>
            <ellipse fill="#b2dfee" stroke="#b2dfee" cx="142" cy="-105" rx="18" ry="18"/>
            <text text-anchor="middle" x="142" y="-101.3" font-family="Times,serif" font-size="14.00" fill="#000000">2
            </text>
        </g>
        <!-- 2&#45;&#45;1 -->
        <g id="edge1" class="edge">
            <title>2&#45;&#45;1</title>
            <path fill="none" stroke="#000000"
                  d="M137.548,-87.3943C133.7311,-72.3001 128.2604,-50.6661 124.4454,-35.5796"/>
            <text text-anchor="middle" x="135.5" y="-57.8" font-family="Times,serif" font-size="14.00" fill="#000000">
                1
            </text>
        </g>
        <!-- 3 -->
        <g id="node3" class="node">
            <title>3</title>
            <ellipse fill="#b2dfee" stroke="#b2dfee" cx="96" cy="-192" rx="18" ry="18"/>
            <text text-anchor="middle" x="96" y="-188.3" font-family="Times,serif" font-size="14.00" fill="#000000">3
            </text>
        </g>
        <!-- 3&#45;&#45;1 -->
        <g id="edge2" class="edge">
            <title>3&#45;&#45;1</title>
            <path fill="none" stroke="#000000"
                  d="M97.7594,-173.7485C99.8573,-152.7705 103.6335,-117.3282 108,-87 110.5124,-69.5494 114.0285,-49.7308 116.6053,-35.8251"/>
            <text text-anchor="middle" x="111.5" y="-101.3" font-family="Times,serif" font-size="14.00" fill="#000000">
                1
            </text>
        </g>
        <!-- 4 -->
        <g id="node4" class="node">
            <title>4</title>
            <ellipse fill="#b2dfee" stroke="#b2dfee" cx="46" cy="-279" rx="18" ry="18"/>
            <text text-anchor="middle" x="46" y="-275.3" font-family="Times,serif" font-size="14.00" fill="#000000">4
            </text>
        </g>
        <!-- 4&#45;&#45;3 -->
        <g id="edge3" class="edge">
            <title>4&#45;&#45;3</title>
            <path fill="none" stroke="#000000"
                  d="M55.1708,-263.0429C64.1924,-247.3453 77.8859,-223.5185 86.8874,-207.856"/>
            <text text-anchor="middle" x="77.5" y="-231.8" font-family="Times,serif" font-size="14.00" fill="#000000">
                9
            </text>
        </g>
        <!-- 5 -->
        <g id="node5" class="node">
            <title>5</title>
            <ellipse fill="#b2dfee" stroke="#b2dfee" cx="196" cy="-192" rx="18" ry="18"/>
            <text text-anchor="middle" x="196" y="-188.3" font-family="Times,serif" font-size="14.00" fill="#000000">5
            </text>
        </g>
        <!-- 5&#45;&#45;1 -->
        <g id="edge4" class="edge">
            <title>5&#45;&#45;1</title>
            <path fill="none" stroke="#000000"
                  d="M194.9896,-173.8614C194.1619,-164.0282 192.6707,-151.7274 190,-141 183.7789,-116.0118 181.2143,-109.6698 169,-87 158.1284,-66.8222 142.311,-45.6137 131.6125,-32.1236"/>
            <text text-anchor="middle" x="188.5" y="-101.3" font-family="Times,serif" font-size="14.00" fill="#000000">
                4
            </text>
        </g>
        <!-- 5&#45;&#45;2 -->
        <g id="edge5" class="edge">
            <title>5&#45;&#45;2</title>
            <path fill="none" stroke="#000000"
                  d="M186.3459,-176.4461C176.5168,-160.6105 161.3693,-136.2061 151.5705,-120.4192"/>
            <text text-anchor="middle" x="179" y="-144.8" font-family="Times,serif" font-size="14.00" fill="#000000">
                89
            </text>
        </g>
        <!-- 6 -->
        <g id="node6" class="node">
            <title>6</title>
            <ellipse fill="#b2dfee" stroke="#b2dfee" cx="231" cy="-279" rx="18" ry="18"/>
            <text text-anchor="middle" x="231" y="-275.3" font-family="Times,serif" font-size="14.00" fill="#000000">6
            </text>
        </g>
        <!-- 6&#45;&#45;5 -->
        <g id="edge6" class="edge">
            <title>6&#45;&#45;5</title>
            <path fill="none" stroke="#000000"
                  d="M224.2516,-262.2255C218.0539,-246.8198 208.9188,-224.1124 202.7276,-208.723"/>
            <text text-anchor="middle" x="218.5" y="-231.8" font-family="Times,serif" font-size="14.00" fill="#000000">
                1
            </text>
        </g>
        <!-- 7 -->
        <g id="node7" class="node">
            <title>7</title>
            <ellipse fill="#b2dfee" stroke="#b2dfee" cx="121" cy="-366" rx="18" ry="18"/>
            <text text-anchor="middle" x="121" y="-362.3" font-family="Times,serif" font-size="14.00" fill="#000000">7
            </text>
        </g>
        <!-- 7&#45;&#45;1 -->
        <g id="edge7" class="edge">
            <title>7&#45;&#45;1</title>
            <path fill="none" stroke="#000000"
                  d="M103.4056,-362.0624C69.8465,-353.3991 0,-329.3236 0,-279 0,-279 0,-279 0,-105 0,-55.0789 68.9136,-30.8571 102.2936,-22.0528"/>
            <text text-anchor="middle" x="3.5" y="-188.3" font-family="Times,serif" font-size="14.00" fill="#000000">3
            </text>
        </g>
        <!-- 7&#45;&#45;2 -->
        <g id="edge8" class="edge">
            <title>7&#45;&#45;2</title>
            <path fill="none" stroke="#000000"
                  d="M124.9504,-348.129C126.0961,-342.3675 127.2414,-335.9368 128,-330 137.7729,-253.5199 140.7952,-161.5073 141.6692,-123.1576"/>
            <text text-anchor="middle" x="140.5" y="-231.8" font-family="Times,serif" font-size="14.00" fill="#000000">
                1
            </text>
        </g>
        <!-- 7&#45;&#45;3 -->
        <g id="edge9" class="edge">
            <title>7&#45;&#45;3</title>
            <path fill="none" stroke="#000000"
                  d="M118.4187,-348.0343C113.6157,-314.605 103.3597,-243.2232 98.5672,-209.868"/>
            <text text-anchor="middle" x="117" y="-275.3" font-family="Times,serif" font-size="14.00" fill="#000000">
                10
            </text>
        </g>
        <!-- 7&#45;&#45;4 -->
        <g id="edge10" class="edge">
            <title>7&#45;&#45;4</title>
            <path fill="none" stroke="#000000"
                  d="M106.4629,-355.2537C97.918,-348.5372 87.2157,-339.4006 79,-330 69.5617,-319.2005 60.8381,-305.4819 54.7336,-294.9936"/>
            <text text-anchor="middle" x="82.5" y="-318.8" font-family="Times,serif" font-size="14.00" fill="#000000">
                2
            </text>
        </g>
        <!-- 7&#45;&#45;5 -->
        <g id="edge11" class="edge">
            <title>7&#45;&#45;5</title>
            <path fill="none" stroke="#000000"
                  d="M134.9861,-354.6093C142.1848,-348.0822 150.5663,-339.344 156,-330 178.822,-290.7544 189.4113,-237.5615 193.6262,-210.0886"/>
            <text text-anchor="middle" x="185.5" y="-275.3" font-family="Times,serif" font-size="14.00" fill="#000000">
                1
            </text>
        </g>
        <!-- 7&#45;&#45;6 -->
        <g id="edge12" class="edge">
            <title>7&#45;&#45;6</title>
            <path fill="none" stroke="#000000"
                  d="M138.5985,-361.6782C156.3338,-356.5835 183.6369,-346.6328 202,-330 212.2668,-320.7006 219.8097,-306.8883 224.6253,-295.9825"/>
            <text text-anchor="middle" x="217.5" y="-318.8" font-family="Times,serif" font-size="14.00" fill="#000000">
                3
            </text>
        </g>
    </g>
</svg>
