<?xml version="1.0" encoding="UTF-8" standalone="no"?>
<!DOCTYPE svg PUBLIC "-//W3C//DTD SVG 1.1//EN"
        "http://www.w3.org/Graphics/SVG/1.1/DTD/svg11.dtd">
<!-- Generated by graphviz version 2.40.1 (20161225.0304)
 -->
<!-- Title: GРезультат (A || B) ^ C Pages: 1 -->
<svg width="199pt" height="283pt"
     viewBox="0.00 0.00 199.23 283.00" xmlns="http://www.w3.org/2000/svg">
    <g id="graph0" class="graph" transform="scale(1 1) rotate(0) translate(4 279)">
        <title>GРезультат (A || B) ^ C</title>
        <polygon fill="#ffffff" stroke="transparent" points="-4,4 -4,-279 195.2274,-279 195.2274,4 -4,4"/>
        <text text-anchor="middle" x="95.6137" y="-259.8" font-family="Times,serif" font-size="14.00" fill="#000000">
            Результат (A || B) ^ C
        </text>
        <!-- 1 -->
        <g id="node1" class="node">
            <title>1</title>
            <ellipse fill="#b2dfee" stroke="#b2dfee" cx="41" cy="-18" rx="18" ry="18"/>
            <text text-anchor="middle" x="41" y="-14.3" font-family="Times,serif" font-size="14.00" fill="#000000">1
            </text>
        </g>
        <!-- 2 -->
        <g id="node2" class="node">
            <title>2</title>
            <ellipse fill="#b2dfee" stroke="#b2dfee" cx="118" cy="-18" rx="18" ry="18"/>
            <text text-anchor="middle" x="118" y="-14.3" font-family="Times,serif" font-size="14.00" fill="#000000">2
            </text>
        </g>
        <!-- 3 -->
        <g id="node3" class="node">
            <title>3</title>
            <ellipse fill="#b2dfee" stroke="#b2dfee" cx="18" cy="-90" rx="18" ry="18"/>
            <text text-anchor="middle" x="18" y="-86.3" font-family="Times,serif" font-size="14.00" fill="#000000">3
            </text>
        </g>
        <!-- 3&#45;&#45;1 -->
        <g id="edge1" class="edge">
            <title>3&#45;&#45;1</title>
            <path fill="none" stroke="#000000"
                  d="M23.5677,-72.5708C27.1838,-61.2506 31.8777,-46.5568 35.4836,-35.2687"/>
        </g>
        <!-- 3&#45;&#45;2 -->
        <g id="edge2" class="edge">
            <title>3&#45;&#45;2</title>
            <path fill="none" stroke="#000000"
                  d="M32.7553,-79.3762C51.662,-65.7634 84.2483,-42.3012 103.1841,-28.6674"/>
        </g>
        <!-- 4 -->
        <g id="node4" class="node">
            <title>4</title>
            <ellipse fill="#b2dfee" stroke="#b2dfee" cx="72" cy="-90" rx="18" ry="18"/>
            <text text-anchor="middle" x="72" y="-86.3" font-family="Times,serif" font-size="14.00" fill="#000000">4
            </text>
        </g>
        <!-- 4&#45;&#45;1 -->
        <g id="edge3" class="edge">
            <title>4&#45;&#45;1</title>
            <path fill="none" stroke="#000000" d="M64.8101,-73.3008C59.8019,-61.669 53.1505,-46.2206 48.151,-34.6087"/>
        </g>
        <!-- 4&#45;&#45;2 -->
        <g id="edge4" class="edge">
            <title>4&#45;&#45;2</title>
            <path fill="none" stroke="#000000"
                  d="M81.7554,-74.7307C89.5618,-62.512 100.456,-45.4602 108.2586,-33.2473"/>
        </g>
        <!-- 5 -->
        <g id="node5" class="node">
            <title>5</title>
            <ellipse fill="#b2dfee" stroke="#b2dfee" cx="102" cy="-162" rx="18" ry="18"/>
            <text text-anchor="middle" x="102" y="-158.3" font-family="Times,serif" font-size="14.00" fill="#000000">5
            </text>
        </g>
        <!-- 5&#45;&#45;2 -->
        <g id="edge5" class="edge">
            <title>5&#45;&#45;2</title>
            <path fill="none" stroke="#000000"
                  d="M103.9941,-144.0535C107.0601,-116.4592 112.8997,-63.9026 115.9808,-36.1727"/>
        </g>
        <!-- 5&#45;&#45;4 -->
        <g id="edge6" class="edge">
            <title>5&#45;&#45;4</title>
            <path fill="none" stroke="#000000"
                  d="M95.042,-145.3008C90.2647,-133.8352 83.9422,-118.6612 79.1286,-107.1086"/>
        </g>
        <!-- 6 -->
        <g id="node6" class="node">
            <title>6</title>
            <ellipse fill="#b2dfee" stroke="#b2dfee" cx="156" cy="-162" rx="18" ry="18"/>
            <text text-anchor="middle" x="156" y="-158.3" font-family="Times,serif" font-size="14.00" fill="#000000">6
            </text>
        </g>
        <!-- 6&#45;&#45;2 -->
        <g id="edge7" class="edge">
            <title>6&#45;&#45;2</title>
            <path fill="none" stroke="#000000"
                  d="M151.3405,-144.3428C144.0472,-116.7053 130.0143,-63.5278 122.6977,-35.8017"/>
        </g>
        <!-- 6&#45;&#45;4 -->
        <g id="edge8" class="edge">
            <title>6&#45;&#45;4</title>
            <path fill="none" stroke="#000000"
                  d="M142.1291,-150.1107C126.5653,-136.7702 101.4638,-115.2547 85.8915,-101.907"/>
        </g>
        <!-- 7 -->
        <g id="node7" class="node">
            <title>7</title>
            <ellipse fill="#b2dfee" stroke="#b2dfee" cx="102" cy="-234" rx="18" ry="18"/>
            <text text-anchor="middle" x="102" y="-230.3" font-family="Times,serif" font-size="14.00" fill="#000000">7
            </text>
        </g>
        <!-- 7&#45;&#45;2 -->
        <g id="edge9" class="edge">
            <title>7&#45;&#45;2</title>
            <path fill="none" stroke="#000000"
                  d="M119.3842,-228.1186C138.9052,-220.4667 169.6022,-205.034 183,-180 211.3128,-127.097 156.9459,-59.119 130.8576,-31.0321"/>
        </g>
        <!-- 7&#45;&#45;3 -->
        <g id="edge10" class="edge">
            <title>7&#45;&#45;3</title>
            <path fill="none" stroke="#000000"
                  d="M91.5109,-219.1247C84.1039,-208.4187 74.0963,-193.538 66,-180 50.9123,-154.7715 35.2088,-124.4188 26.0321,-106.1952"/>
        </g>
        <!-- 7&#45;&#45;4 -->
        <g id="edge11" class="edge">
            <title>7&#45;&#45;4</title>
            <path fill="none" stroke="#000000"
                  d="M92.0749,-218.6359C85.9068,-208.1938 78.5058,-193.8171 75,-180 68.8482,-155.7544 69.2143,-126.6595 70.3539,-108.2479"/>
        </g>
        <!-- 7&#45;&#45;5 -->
        <g id="edge12" class="edge">
            <title>7&#45;&#45;5</title>
            <path fill="none" stroke="#000000" d="M102,-215.8314C102,-205 102,-191.2876 102,-180.4133"/>
        </g>
        <!-- 7&#45;&#45;6 -->
        <g id="edge13" class="edge">
            <title>7&#45;&#45;6</title>
            <path fill="none" stroke="#000000"
                  d="M112.9277,-219.4297C122.2965,-206.938 135.7245,-189.034 145.0885,-176.5486"/>
        </g>
    </g>
</svg>
