<?xml version="1.0" encoding="UTF-8" standalone="no"?>
<!DOCTYPE svg PUBLIC "-//W3C//DTD SVG 1.1//EN"
        "http://www.w3.org/Graphics/SVG/1.1/DTD/svg11.dtd">
<!-- Generated by graphviz version 2.40.1 (20161225.0304)
 -->
<!-- Title: GB Pages: 1 -->
<svg width="242pt" height="283pt"
     viewBox="0.00 0.00 241.63 283.00" xmlns="http://www.w3.org/2000/svg">
    <g id="graph0" class="graph" transform="scale(1 1) rotate(0) translate(4 279)">
        <title>GB</title>
        <polygon fill="#ffffff" stroke="transparent" points="-4,4 -4,-279 237.6251,-279 237.6251,4 -4,4"/>
        <text text-anchor="middle" x="116.8126" y="-259.8" font-family="Times,serif" font-size="14.00" fill="#000000">
            B
        </text>
        <!-- 1 -->
        <g id="node1" class="node">
            <title>1</title>
            <ellipse fill="#b2dfee" stroke="#b2dfee" cx="87" cy="-18" rx="18" ry="18"/>
            <text text-anchor="middle" x="87" y="-14.3" font-family="Times,serif" font-size="14.00" fill="#000000">1
            </text>
        </g>
        <!-- 2 -->
        <g id="node2" class="node">
            <title>2</title>
            <ellipse fill="#b2dfee" stroke="#b2dfee" cx="156" cy="-18" rx="18" ry="18"/>
            <text text-anchor="middle" x="156" y="-14.3" font-family="Times,serif" font-size="14.00" fill="#000000">2
            </text>
        </g>
        <!-- 3 -->
        <g id="node3" class="node">
            <title>3</title>
            <ellipse fill="#b2dfee" stroke="#b2dfee" cx="72" cy="-90" rx="18" ry="18"/>
            <text text-anchor="middle" x="72" y="-86.3" font-family="Times,serif" font-size="14.00" fill="#000000">3
            </text>
        </g>
        <!-- 3&#45;&#45;1 -->
        <g id="edge1" class="edge">
            <title>3&#45;&#45;1</title>
            <path fill="none" stroke="#000000" d="M75.7079,-72.2022C78.0156,-61.1252 80.9733,-46.928 83.2828,-35.8425"/>
        </g>
        <!-- 3&#45;&#45;2 -->
        <g id="edge2" class="edge">
            <title>3&#45;&#45;2</title>
            <path fill="none" stroke="#000000"
                  d="M85.8709,-78.1107C101.4347,-64.7702 126.5362,-43.2547 142.1085,-29.907"/>
        </g>
        <!-- 4 -->
        <g id="node4" class="node">
            <title>4</title>
            <ellipse fill="#b2dfee" stroke="#b2dfee" cx="202" cy="-90" rx="18" ry="18"/>
            <text text-anchor="middle" x="202" y="-86.3" font-family="Times,serif" font-size="14.00" fill="#000000">4
            </text>
        </g>
        <!-- 4&#45;&#45;1 -->
        <g id="edge3" class="edge">
            <title>4&#45;&#45;1</title>
            <path fill="none" stroke="#000000"
                  d="M186.4906,-80.2898C164.4194,-66.4713 124.1992,-41.2899 102.2637,-27.5564"/>
        </g>
        <!-- 4&#45;&#45;2 -->
        <g id="edge4" class="edge">
            <title>4&#45;&#45;2</title>
            <path fill="none" stroke="#000000"
                  d="M192.2446,-74.7307C184.4382,-62.512 173.544,-45.4602 165.7414,-33.2473"/>
        </g>
        <!-- 5 -->
        <g id="node5" class="node">
            <title>5</title>
            <ellipse fill="#b2dfee" stroke="#b2dfee" cx="18" cy="-90" rx="18" ry="18"/>
            <text text-anchor="middle" x="18" y="-86.3" font-family="Times,serif" font-size="14.00" fill="#000000">5
            </text>
        </g>
        <!-- 5&#45;&#45;1 -->
        <g id="edge5" class="edge">
            <title>5&#45;&#45;1</title>
            <path fill="none" stroke="#000000" d="M30.6557,-76.7941C43.1055,-63.803 62.0025,-44.0843 74.4246,-31.1222"/>
        </g>
        <!-- 5&#45;&#45;2 -->
        <g id="edge6" class="edge">
            <title>5&#45;&#45;2</title>
            <path fill="none" stroke="#000000"
                  d="M32.9091,-79.5407C36.7813,-76.9692 40.9919,-74.297 45,-72 77.5385,-53.3528 117.4611,-34.9656 139.4671,-25.1968"/>
        </g>
        <!-- 6 -->
        <g id="node6" class="node">
            <title>6</title>
            <ellipse fill="#b2dfee" stroke="#b2dfee" cx="140" cy="-162" rx="18" ry="18"/>
            <text text-anchor="middle" x="140" y="-158.3" font-family="Times,serif" font-size="14.00" fill="#000000">6
            </text>
        </g>
        <!-- 6&#45;&#45;1 -->
        <g id="edge7" class="edge">
            <title>6&#45;&#45;1</title>
            <path fill="none" stroke="#000000"
                  d="M133.7121,-144.9158C123.5118,-117.2018 103.4748,-62.7617 93.2797,-35.0619"/>
        </g>
        <!-- 6&#45;&#45;2 -->
        <g id="edge8" class="edge">
            <title>6&#45;&#45;2</title>
            <path fill="none" stroke="#000000"
                  d="M141.9941,-144.0535C145.0601,-116.4592 150.8997,-63.9026 153.9808,-36.1727"/>
        </g>
        <!-- 6&#45;&#45;3 -->
        <g id="edge9" class="edge">
            <title>6&#45;&#45;3</title>
            <path fill="none" stroke="#000000"
                  d="M127.5278,-148.7941C115.2584,-135.803 96.6352,-116.0843 84.3932,-103.1222"/>
        </g>
        <!-- 6&#45;&#45;4 -->
        <g id="edge10" class="edge">
            <title>6&#45;&#45;4</title>
            <path fill="none" stroke="#000000"
                  d="M151.9542,-148.1177C162.933,-135.3681 179.1153,-116.5758 190.0825,-103.8397"/>
        </g>
        <!-- 7 -->
        <g id="node7" class="node">
            <title>7</title>
            <ellipse fill="#b2dfee" stroke="#b2dfee" cx="140" cy="-234" rx="18" ry="18"/>
            <text text-anchor="middle" x="140" y="-230.3" font-family="Times,serif" font-size="14.00" fill="#000000">7
            </text>
        </g>
        <!-- 7&#45;&#45;2 -->
        <g id="edge11" class="edge">
            <title>7&#45;&#45;2</title>
            <path fill="none" stroke="#000000"
                  d="M153.4642,-221.691C175.0451,-200.8492 216.2504,-156.1548 229,-108 233.0951,-92.5329 236.2027,-86.2871 229,-72 222.826,-59.7534 191.3206,-39.2078 171.7709,-27.3024"/>
        </g>
        <!-- 7&#45;&#45;3 -->
        <g id="edge12" class="edge">
            <title>7&#45;&#45;3</title>
            <path fill="none" stroke="#000000"
                  d="M131.5726,-217.5323C126.1669,-206.8753 119.053,-192.6741 113,-180 100.8647,-154.5904 87.4514,-124.8008 79.3778,-106.6712"/>
        </g>
        <!-- 7&#45;&#45;4 -->
        <g id="edge13" class="edge">
            <title>7&#45;&#45;4</title>
            <path fill="none" stroke="#000000"
                  d="M148.6733,-217.6455C154.1771,-207.0336 161.3079,-192.8402 167,-180 178.0746,-155.0178 189.2358,-125.3619 195.8835,-107.112"/>
        </g>
        <!-- 7&#45;&#45;5 -->
        <g id="edge14" class="edge">
            <title>7&#45;&#45;5</title>
            <path fill="none" stroke="#000000"
                  d="M127.621,-220.3675C117.8397,-209.5256 103.901,-193.9191 92,-180 69.3896,-153.5553 43.7571,-122.0182 29.3702,-104.1692"/>
        </g>
        <!-- 7&#45;&#45;6 -->
        <g id="edge15" class="edge">
            <title>7&#45;&#45;6</title>
            <path fill="none" stroke="#000000" d="M140,-215.8314C140,-205 140,-191.2876 140,-180.4133"/>
        </g>
    </g>
</svg>
