<?xml version="1.0" encoding="UTF-8" standalone="no"?>
<!DOCTYPE svg PUBLIC "-//W3C//DTD SVG 1.1//EN"
        "http://www.w3.org/Graphics/SVG/1.1/DTD/svg11.dtd">
<!-- Generated by graphviz version 2.40.1 (20161225.0304)
 -->
<!-- Title: GC Pages: 1 -->
<svg width="200pt" height="427pt"
     viewBox="0.00 0.00 199.89 427.00" xmlns="http://www.w3.org/2000/svg">
    <g id="graph0" class="graph" transform="scale(1 1) rotate(0) translate(4 423)">
        <title>GC</title>
        <polygon fill="#ffffff" stroke="transparent" points="-4,4 -4,-423 195.8873,-423 195.8873,4 -4,4"/>
        <text text-anchor="middle" x="95.9436" y="-403.8" font-family="Times,serif" font-size="14.00" fill="#000000">C
        </text>
        <!-- 1 -->
        <g id="node1" class="node">
            <title>1</title>
            <ellipse fill="#b2dfee" stroke="#b2dfee" cx="102" cy="-18" rx="18" ry="18"/>
            <text text-anchor="middle" x="102" y="-14.3" font-family="Times,serif" font-size="14.00" fill="#000000">1
            </text>
        </g>
        <!-- 2 -->
        <g id="node2" class="node">
            <title>2</title>
            <ellipse fill="#b2dfee" stroke="#b2dfee" cx="102" cy="-90" rx="18" ry="18"/>
            <text text-anchor="middle" x="102" y="-86.3" font-family="Times,serif" font-size="14.00" fill="#000000">2
            </text>
        </g>
        <!-- 2&#45;&#45;1 -->
        <g id="edge1" class="edge">
            <title>2&#45;&#45;1</title>
            <path fill="none" stroke="#000000" d="M102,-71.8314C102,-61 102,-47.2876 102,-36.4133"/>
        </g>
        <!-- 3 -->
        <g id="node3" class="node">
            <title>3</title>
            <ellipse fill="#b2dfee" stroke="#b2dfee" cx="18" cy="-162" rx="18" ry="18"/>
            <text text-anchor="middle" x="18" y="-158.3" font-family="Times,serif" font-size="14.00" fill="#000000">3
            </text>
        </g>
        <!-- 3&#45;&#45;1 -->
        <g id="edge2" class="edge">
            <title>3&#45;&#45;1</title>
            <path fill="none" stroke="#000000"
                  d="M27.1494,-146.3154C43.3075,-118.6157 76.7118,-61.3512 92.8619,-33.6653"/>
        </g>
        <!-- 3&#45;&#45;2 -->
        <g id="edge3" class="edge">
            <title>3&#45;&#45;2</title>
            <path fill="none" stroke="#000000"
                  d="M31.8709,-150.1107C47.4347,-136.7702 72.5362,-115.2547 88.1085,-101.907"/>
        </g>
        <!-- 4 -->
        <g id="node4" class="node">
            <title>4</title>
            <ellipse fill="#b2dfee" stroke="#b2dfee" cx="148" cy="-162" rx="18" ry="18"/>
            <text text-anchor="middle" x="148" y="-158.3" font-family="Times,serif" font-size="14.00" fill="#000000">4
            </text>
        </g>
        <!-- 4&#45;&#45;1 -->
        <g id="edge4" class="edge">
            <title>4&#45;&#45;1</title>
            <path fill="none" stroke="#000000"
                  d="M145.5931,-144.0452C142.8039,-125.6131 137.4736,-96.2743 129,-72 124.302,-58.5415 116.9755,-44.1424 111.1392,-33.6005"/>
        </g>
        <!-- 4&#45;&#45;2 -->
        <g id="edge5" class="edge">
            <title>4&#45;&#45;2</title>
            <path fill="none" stroke="#000000"
                  d="M138.2446,-146.7307C130.4382,-134.512 119.544,-117.4602 111.7414,-105.2473"/>
        </g>
        <!-- 5 -->
        <g id="node5" class="node">
            <title>5</title>
            <ellipse fill="#b2dfee" stroke="#b2dfee" cx="56" cy="-234" rx="18" ry="18"/>
            <text text-anchor="middle" x="56" y="-230.3" font-family="Times,serif" font-size="14.00" fill="#000000">5
            </text>
        </g>
        <!-- 5&#45;&#45;2 -->
        <g id="edge6" class="edge">
            <title>5&#45;&#45;2</title>
            <path fill="none" stroke="#000000"
                  d="M61.5487,-216.6302C70.3901,-188.9528 87.5779,-135.1475 96.4316,-107.4314"/>
        </g>
        <!-- 5&#45;&#45;3 -->
        <g id="edge7" class="edge">
            <title>5&#45;&#45;3</title>
            <path fill="none" stroke="#000000"
                  d="M47.5666,-218.0209C41.2693,-206.0892 32.7014,-189.8553 26.4099,-177.9345"/>
        </g>
        <!-- 5&#45;&#45;4 -->
        <g id="edge8" class="edge">
            <title>5&#45;&#45;4</title>
            <path fill="none" stroke="#000000"
                  d="M70.375,-222.75C87.6587,-209.2236 116.4873,-186.6621 133.7259,-173.171"/>
        </g>
        <!-- 6 -->
        <g id="node6" class="node">
            <title>6</title>
            <ellipse fill="#b2dfee" stroke="#b2dfee" cx="102" cy="-306" rx="18" ry="18"/>
            <text text-anchor="middle" x="102" y="-302.3" font-family="Times,serif" font-size="14.00" fill="#000000">6
            </text>
        </g>
        <!-- 6&#45;&#45;2 -->
        <g id="edge9" class="edge">
            <title>6&#45;&#45;2</title>
            <path fill="none" stroke="#000000" d="M102,-287.9555C102,-247.2967 102,-148.8988 102,-108.1451"/>
        </g>
        <!-- 6&#45;&#45;4 -->
        <g id="edge10" class="edge">
            <title>6&#45;&#45;4</title>
            <path fill="none" stroke="#000000"
                  d="M107.5487,-288.6302C116.3901,-260.9528 133.5779,-207.1475 142.4316,-179.4314"/>
        </g>
        <!-- 6&#45;&#45;5 -->
        <g id="edge11" class="edge">
            <title>6&#45;&#45;5</title>
            <path fill="none" stroke="#000000"
                  d="M92.2446,-290.7307C84.4382,-278.512 73.544,-261.4602 65.7414,-249.2473"/>
        </g>
        <!-- 7 -->
        <g id="node7" class="node">
            <title>7</title>
            <ellipse fill="#b2dfee" stroke="#b2dfee" cx="102" cy="-378" rx="18" ry="18"/>
            <text text-anchor="middle" x="102" y="-374.3" font-family="Times,serif" font-size="14.00" fill="#000000">7
            </text>
        </g>
        <!-- 7&#45;&#45;2 -->
        <g id="edge12" class="edge">
            <title>7&#45;&#45;2</title>
            <path fill="none" stroke="#000000"
                  d="M115.5514,-365.5723C125.7947,-355.3948 139.3563,-340.0942 147,-324 181.7333,-250.8668 211.4464,-216.2947 175,-144 168.826,-131.7534 137.3206,-111.2078 117.7709,-99.3024"/>
        </g>
        <!-- 7&#45;&#45;3 -->
        <g id="edge13" class="edge">
            <title>7&#45;&#45;3</title>
            <path fill="none" stroke="#000000"
                  d="M89.9095,-363.9724C81.1894,-353.4302 69.5048,-338.3894 61,-324 43.1821,-293.8538 38.3378,-285.7502 29,-252 22.284,-227.7259 19.6661,-198.6382 18.6472,-180.2359"/>
        </g>
        <!-- 7&#45;&#45;4 -->
        <g id="edge14" class="edge">
            <title>7&#45;&#45;4</title>
            <path fill="none" stroke="#000000"
                  d="M111.4517,-362.5025C117.42,-352.0041 124.7761,-337.6148 129,-324 144.607,-273.6943 147.565,-210.9704 148.0158,-180.4295"/>
        </g>
        <!-- 7&#45;&#45;5 -->
        <g id="edge15" class="edge">
            <title>7&#45;&#45;5</title>
            <path fill="none" stroke="#000000"
                  d="M92.8608,-362.3995C87.0245,-351.8576 79.698,-337.4585 75,-324 66.5264,-299.7257 61.1961,-270.3869 58.4069,-251.9548"/>
        </g>
        <!-- 7&#45;&#45;6 -->
        <g id="edge16" class="edge">
            <title>7&#45;&#45;6</title>
            <path fill="none" stroke="#000000" d="M102,-359.8314C102,-349 102,-335.2876 102,-324.4133"/>
        </g>
    </g>
</svg>
